<?xml version="1.0" encoding="UTF-8"?>
<svg xmlns="http://www.w3.org/2000/svg" viewBox="0 0 1080 1080" width="1080" height="1080" role="img" aria-label="Kompasroos met de vier ingangen van het Financieel Vastgoedkompas">
  <title>Kompasroos met de vier ingangen van het Financieel Vastgoedkompas</title>
  <rect width="1080" height="1080" fill="#fafbfb"/>
  <circle cx="540" cy="540" r="490" fill="#ecf7f4" opacity="0.5"/>
  <circle cx="540" cy="540" r="490" fill="none" stroke="#4bb3b8" stroke-width="1.5" stroke-dasharray="2 10" opacity="0.45"/>
  <path d="M565.67 172.9 A368 368 0 0 1 756.3 242.28" fill="none" stroke="#dce1e2" stroke-width="6" stroke-linecap="round"/>
  <path d="M795.63 275.28 A368 368 0 0 1 897.07 450.97" fill="none" stroke="#dce1e2" stroke-width="6" stroke-linecap="round"/>
  <path d="M905.98 501.53 A368 368 0 0 1 870.76 701.32" fill="none" stroke="#dce1e2" stroke-width="6" stroke-linecap="round"/>
  <path d="M845.09 745.78 A368 368 0 0 1 689.68 876.18" fill="none" stroke="#dce1e2" stroke-width="6" stroke-linecap="round"/>
  <path d="M641.43 893.74 A368 368 0 0 1 438.57 893.74" fill="none" stroke="#dce1e2" stroke-width="6" stroke-linecap="round"/>
  <path d="M390.32 876.18 A368 368 0 0 1 234.91 745.78" fill="none" stroke="#dce1e2" stroke-width="6" stroke-linecap="round"/>
  <path d="M209.24 701.32 A368 368 0 0 1 174.02 501.53" fill="none" stroke="#dce1e2" stroke-width="6" stroke-linecap="round"/>
  <path d="M182.93 450.97 A368 368 0 0 1 284.37 275.28" fill="none" stroke="#dce1e2" stroke-width="6" stroke-linecap="round"/>
  <path d="M323.7 242.28 A368 368 0 0 1 514.33 172.9" fill="none" stroke="#dce1e2" stroke-width="6" stroke-linecap="round"/>
  <circle cx="540" cy="172" r="4" fill="#9aa4a6"/>
  <circle cx="776.55" cy="258.1" r="4" fill="#9aa4a6"/>
  <circle cx="902.41" cy="476.1" r="4" fill="#9aa4a6"/>
  <circle cx="858.7" cy="724" r="4" fill="#9aa4a6"/>
  <circle cx="665.86" cy="885.81" r="4" fill="#9aa4a6"/>
  <circle cx="414.14" cy="885.81" r="4" fill="#9aa4a6"/>
  <circle cx="221.3" cy="724" r="4" fill="#9aa4a6"/>
  <circle cx="177.59" cy="476.1" r="4" fill="#9aa4a6"/>
  <circle cx="303.45" cy="258.1" r="4" fill="#9aa4a6"/>
  <path d="M492.07 268.19 A276 276 0 0 1 799.36 634.4" fill="none" stroke="#0f6fa8" stroke-width="4.5" stroke-linecap="round" opacity="0.9"/>
  <circle cx="492.07" cy="268.19" r="6.5" fill="#0f6fa8"/>
  <path d="M788.55 396.5 A287 287 0 0 1 540 827" fill="none" stroke="#12a3a0" stroke-width="4.5" stroke-linecap="round" opacity="0.9"/>
  <circle cx="788.55" cy="396.5" r="6.5" fill="#12a3a0"/>
  <path d="M768.28 731.55 A298 298 0 0 1 259.97 641.92" fill="none" stroke="#e2833c" stroke-width="4.5" stroke-linecap="round" opacity="0.9"/>
  <circle cx="768.28" cy="731.55" r="6.5" fill="#e2833c"/>
  <path d="M434.32 830.37 A309 309 0 0 1 341.38 303.29" fill="none" stroke="#9462a6" stroke-width="4.5" stroke-linecap="round" opacity="0.9"/>
  <circle cx="434.32" cy="830.37" r="6.5" fill="#9462a6"/>
  <path d="M220 540 A320 320 0 0 1 700 262.87" fill="none" stroke="#3e9b62" stroke-width="4.5" stroke-linecap="round" opacity="0.9"/>
  <circle cx="220" cy="540" r="6.5" fill="#3e9b62"/>
  <path d="M644.65 435.35 L596.57 531.51 L540 540 Z" fill="#168b94"/><path d="M644.65 435.35 L540 540 L548.49 483.43 Z" fill="#4bb3b8"/>
  <path d="M644.65 644.65 L548.49 596.57 L540 540 Z" fill="#168b94"/><path d="M644.65 644.65 L540 540 L596.57 548.49 Z" fill="#4bb3b8"/>
  <path d="M435.35 644.65 L483.43 548.49 L540 540 Z" fill="#168b94"/><path d="M435.35 644.65 L540 540 L531.51 596.57 Z" fill="#4bb3b8"/>
  <path d="M435.35 435.35 L531.51 483.43 L540 540 Z" fill="#168b94"/><path d="M435.35 435.35 L540 540 L483.43 531.51 Z" fill="#4bb3b8"/>
  <path d="M540 296 L586 484 L540 540 Z" fill="#3b2943"/><path d="M540 296 L540 540 L494 484 Z" fill="#65506f"/>
  <path d="M784 540 L596 586 L540 540 Z" fill="#3b2943"/><path d="M784 540 L540 540 L596 494 Z" fill="#65506f"/>
  <path d="M540 784 L494 596 L540 540 Z" fill="#3b2943"/><path d="M540 784 L540 540 L586 596 Z" fill="#65506f"/>
  <path d="M296 540 L484 494 L540 540 Z" fill="#3b2943"/><path d="M296 540 L540 540 L484 586 Z" fill="#65506f"/>
  <circle cx="540" cy="540" r="60" fill="#ffffff" stroke="#168b94" stroke-width="4"/>
  <g transform="translate(540 542)" fill="none" stroke="#168b94" stroke-width="3.4" stroke-linejoin="round" stroke-linecap="round"><path d="M-24 8 L-24 -3 L-9 -14 L6 -3 L6 8"/><path d="M9 8 L9 -2 L23 -2 L23 8"/><path d="M-29 8 H28"/></g>
  <rect x="459.54" y="134" width="160.92" height="76" rx="38" fill="#ffffff" stroke="#dce1e2" stroke-width="2"/>
  <text x="540" y="170" text-anchor="middle" font-family="Aptos, &quot;Segoe UI&quot;, Arial, Helvetica, sans-serif" font-size="27" font-weight="600" fill="#3b2943">Opgave</text>
  <text x="540" y="194" text-anchor="middle" font-family="Aptos, &quot;Segoe UI&quot;, Arial, Helvetica, sans-serif" font-size="17" fill="#9aa4a6">wat speelt er</text>
  <rect x="836.38" y="502" width="143.24" height="76" rx="38" fill="#ffffff" stroke="#dce1e2" stroke-width="2"/>
  <text x="908" y="538" text-anchor="middle" font-family="Aptos, &quot;Segoe UI&quot;, Arial, Helvetica, sans-serif" font-size="27" font-weight="600" fill="#3b2943">Rol</text>
  <text x="908" y="562" text-anchor="middle" font-family="Aptos, &quot;Segoe UI&quot;, Arial, Helvetica, sans-serif" font-size="17" fill="#9aa4a6">wie ben jij</text>
  <rect x="437.44" y="870" width="205.12" height="76" rx="38" fill="#ffffff" stroke="#dce1e2" stroke-width="2"/>
  <text x="540" y="906" text-anchor="middle" font-family="Aptos, &quot;Segoe UI&quot;, Arial, Helvetica, sans-serif" font-size="27" font-weight="600" fill="#3b2943">Moment</text>
  <text x="540" y="930" text-anchor="middle" font-family="Aptos, &quot;Segoe UI&quot;, Arial, Helvetica, sans-serif" font-size="17" fill="#9aa4a6">waar in het proces</text>
  <rect x="70.7" y="502" width="202.6" height="76" rx="38" fill="#ffffff" stroke="#dce1e2" stroke-width="2"/>
  <text x="172" y="538" text-anchor="middle" font-family="Aptos, &quot;Segoe UI&quot;, Arial, Helvetica, sans-serif" font-size="27" font-weight="600" fill="#3b2943">Instrument</text>
  <text x="172" y="562" text-anchor="middle" font-family="Aptos, &quot;Segoe UI&quot;, Arial, Helvetica, sans-serif" font-size="17" fill="#9aa4a6">wat helpt</text>
</svg>
